<svg width="24" height="18" viewBox="0 0 24 18" fill="none" xmlns="http://www.w3.org/2000/svg">
<g id="Icon">
<g id="Icon_2">
<path id="Vector" d="M8.93544 10.7743C8.93544 10.6826 8.98233 10.6001 9.05727 10.5084L12.9281 5.74927C13.2186 5.38248 13.706 5.63007 13.5373 6.07939L12.2626 9.42641H14.6526C14.8307 9.42641 14.99 9.56389 14.99 9.729C14.99 9.8207 14.9431 9.92157 14.8587 10.004L10.9974 14.754C10.7068 15.1208 10.2101 14.8732 10.3788 14.4331L11.6628 11.0769H9.26345C9.08542 11.0769 8.93544 10.9486 8.93544 10.7743ZM3.89312 17.4316H20.1073C22.0755 17.4316 23.0502 16.4871 23.0502 14.5981V5.73093C23.0502 3.84195 22.0755 2.89746 20.1073 2.89746H18.8139V1.66871C18.8139 0.971799 18.4015 0.549988 17.6799 0.549988H14.915C14.2027 0.549988 13.7903 0.971799 13.7903 1.66871V2.89746H10.2194V1.66871C10.2194 0.971799 9.80705 0.549988 9.08542 0.549988H6.32055C5.59888 0.549988 5.19587 0.971799 5.19587 1.66871V2.89746H3.89312C1.93429 2.89746 0.950195 3.84195 0.950195 5.73093V14.5981C0.950195 16.4871 1.93429 17.4316 3.89312 17.4316Z" fill="#9EFF00"/>
</g>
</g>
</svg>
